# xmcd CD database file
#
# Track frame offsets:
#	150
#	15880
#	27605
#	44525
#	66130
#	78637
#	96137
#	111525
#	124870
#	145272
#	157330
#
# Disc length: 2337 seconds
#
# Revision: 12
# Processed by: cddbd v1.5.2PL0 Copyright (c) Steve Scherf et al.
# Submitted via: CDex 1.70beta3
#
DISCID=9c091f0b
DTITLE=スピッツ - 名前をつけてやる
DYEAR=1991
DGENRE=New Age
TTITLE0=ウサギのバイク
TTITLE1=日曜日
TTITLE2=名前をつけてやる
TTITLE3=鈴虫を飼う
TTITLE4=ミーコとギター
TTITLE5=プール
TTITLE6=胸に咲いた黄色い花
TTITLE7=待ちあわせ
TTITLE8=あわ
TTITLE9=恋のうた
TTITLE10=魔女旅に出る
EXTD=YEAR: 1991
EXTT0=
EXTT1=
EXTT2=
EXTT3=
EXTT4=
EXTT5=
EXTT6=
EXTT7=
EXTT8=
EXTT9=
EXTT10=
PLAYORDER=
